<!-- Loading Svg -->
<!-- Created by lquattro -->
<!-- Thank you for the documentations : w3.org (W3C) and developer.mozilla.org (MDN) -->
<svg version="1.1" xmlns="http://www.w3.org/2000/svg" xmlns:xlink="http://www.w3.org/1999/xlink">
   <!-- Path line, used as a reference for the rotation object -->
	<path id="path5" d="M0,0 C 100,0 100,0 100,0"/>

   <!-- Animate loading truck -->
	<path id="path2" d="m 4.6755006,0.00268083 c -2.5953744,0 -4.67013895,2.09212547 -4.67013895,4.68749997 l 0,15.8159722 c 0,1.743487 0.93785226,3.25555 2.34375005,4.0625 -0.00546,0.108751 -0.017361,0.219755 -0.017361,0.329861 0,3.557591 2.9007434,6.440973 6.4583335,6.440973 3.4593629,0 6.2703899,-2.724279 6.4236109,-6.145834 l 0.295139,0 c 0,3.55759 2.883382,6.440973 6.440972,6.440973 3.55759,0 6.458334,-2.883383 6.458334,-6.440973 l 0.295139,0 c 0.153231,3.421546 2.964254,6.145834 6.423611,6.145834 3.459357,0 6.287742,-2.724288 6.440972,-6.145834 2.595375,0 4.6875,-2.092126 4.6875,-4.6875 l 0,-15.8159722 c 0,-2.5953745 -2.092125,-4.68749997 -4.6875,-4.68749997 l -36.8923614,0 z m 29.8784724,2.34374997 7.309028,0 c 1.459897,0 2.638889,1.1789915 2.638889,2.6388889 l 0,7.3090283 c 0,1.459897 -1.178992,2.638889 -2.638889,2.638889 l -7.309028,0 c -1.459898,0 -2.638889,-1.178992 -2.638889,-2.638889 l 0,-7.3090283 c 0,-1.4598974 1.178991,-2.6388889 2.638889,-2.6388889 z">
		<animateMotion attributeType="XML"
			 dur="3s"
			 repeatCount="indefinite"
			 rotation="auto">
			<mpath xlink:href="#path5"/>
		</animateMotion>
	</path>
</svg>