<!-- Loading Svg -->
<!-- Created by Elquattro -->
<!-- Thank you for the documentations : w3.org (W3C) and developer.mozilla.org (MDN) -->
<svg version="1.1" xmlns="http://www.w3.org/2000/svg" xmlns:xlink="http://www.w3.org/1999/xlink">
   <!-- Path half-Circle, used as a reference for the rotation object
   Delete stroke : if you don't want to see circle or set stroke-width to 0 -->
	<path id="path4" d="M100,250 C 100,50 400,50 400,250" fill="none" stroke="black" stroke-width="1"/>

   <!-- Path line, used as a reference for the rotation object -->
	<path id="path5" d="m 0,0 0,0 100,0 100,0 e"/>

   <!-- Animate loading truck -->
	<path id="path2" d="m 4.6755006,0.00268083 c -2.5953744,0 -4.67013895,2.09212547 -4.67013895,4.68749997 l 0,15.8159722 c 0,1.743487 0.93785226,3.25555 2.34375005,4.0625 -0.00546,0.108751 -0.017361,0.219755 -0.017361,0.329861 0,3.557591 2.9007434,6.440973 6.4583335,6.440973 3.4593629,0 6.2703899,-2.724279 6.4236109,-6.145834 l 0.295139,0 c 0,3.55759 2.883382,6.440973 6.440972,6.440973 3.55759,0 6.458334,-2.883383 6.458334,-6.440973 l 0.295139,0 c 0.153231,3.421546 2.964254,6.145834 6.423611,6.145834 3.459357,0 6.287742,-2.724288 6.440972,-6.145834 2.595375,0 4.6875,-2.092126 4.6875,-4.6875 l 0,-15.8159722 c 0,-2.5953745 -2.092125,-4.68749997 -4.6875,-4.68749997 l -36.8923614,0 z m 29.8784724,2.34374997 7.309028,0 c 1.459897,0 2.638889,1.1789915 2.638889,2.6388889 l 0,7.3090283 c 0,1.459897 -1.178992,2.638889 -2.638889,2.638889 l -7.309028,0 c -1.459898,0 -2.638889,-1.178992 -2.638889,-2.638889 l 0,-7.3090283 c 0,-1.4598974 1.178991,-2.6388889 2.638889,-2.6388889 z">
		<animateMotion attributeType="XML"
			 dur="3s"
			 repeatCount="indefinite"
			 rotation="auto">
			<mpath xlink:href="#path5"/>
		</animateMotion>
	</path>

   <!-- Animate loading plane -->
	<path id="path2" d="m 0.04441417,0.04742574 c -8.72e-5,-8.7e-5 1.03694573,8.78842136 2.12499993,11.06250026 1.148148,2.399677 0.807474,4.50564 0.71875,5.625 -0.088725,1.119361 0.096748,1.104746 -0.9375,2.5 -0.6806363,0.918213 -1.23686183,1.500452 -0.375,3.75 0.784148,2.046707 1.459272,3.126458 3.5625,4.65625 1.6841139,1.224948 4.4881019,1.023636 8.7812509,1.78125 l -9.8125009,13.96875 c 0,0 23.6890859,-8.628331 29.7500009,-11.40625 6.060915,0.757614 14.90625,1.1875 14.90625,1.1875 0,0 21.24432,2.441914 17.4375,-4.71875 -5.295096,-9.960122 -18.15625,-11 -18.15625,-11 l -10.3125,-1.5625 -5.90625,-9.1562499 -6.46875,7.3124999 -12.96875,-1.96875 C 8.153019,8.1711001 4.2498231,3.9832821 0.04441417,0.04742574 z">
		<animateMotion attributeType="XML"
			 dur="3s"
			 repeatCount="indefinite"
			 rotation="auto">
			<mpath xlink:href="#path4"/>
		</animateMotion>
	</path>

   <!-- Animate loading bar -->
	<rect x="10" y="60" width="100" height="5">
        <animate attributeType="XML"
                 attributeName="x"
                 from="-60" to="140"
                 dur="1s"
                 repeatCount="indefinite"/>
    </rect>
</svg>