<!-- Loading Svg -->
<!-- Created by lquattro -->
<!-- Thank you for the documentations : w3.org (W3C) and developer.mozilla.org (MDN) -->
<svg version="1.1" xmlns="http://www.w3.org/2000/svg" xmlns:xlink="http://www.w3.org/1999/xlink">
   <!-- Path line, used as a reference for the rotation object -->
	<path id="line" d="M0,0 C 100,0 100,0 100,0"/>

   <!-- Animate loading truck -->
	<path id="truck" d="M 4.7,0 c -2.6,0 -4.7,2.1 -4.7,4.7 l 0,15.8 c 0,1.7 0.9,3.3 2.3,4.1 0,0.1 0,0.2 0,0.3 0,3.6 2.9,6.4 6.5,6.4 3.5,0 6.3,-2.7 6.4,-6.1 l 0.3,0 c 0,3.6 2.9,6.4 6.4,6.4 3.6,0 6.5,-2.9 6.5,-6.4 l 0.3,0 c 0.2,3.4 3.0,6.1 6.4,6.1 3.5,0 6.3,-2.7 6.4,-6.1 2.6,0 4.7,-2.1 4.7,-4.7 l 0,-15.8 c 0,-2.6 -2.1,-4.7 -4.7,-4.7 l -36.9,0 z m 29.9,2.3 7.3,0 c 1.5,0 2.6,1.2 2.6,2.6 l 0,7.3 c 0,1.5 -1.2,2.6 -2.6,2.6 l -7.3,0 c -1.5,0 -2.6,-1.2 -2.6,-2.6 l 0,-7.3 c 0,-1.5 1.2,-2.6 2.6,-2.6 Z">
		<animateMotion attributeType="XML"
			 dur="3s"
			 repeatCount="indefinite"
			 rotation="auto">
			<mpath xlink:href="#line"/>
		</animateMotion>
	</path>
</svg>