<!-- Loading Svg -->
<!-- Created by lquattro -->
<!-- Thank you for the documentations : w3.org (W3C) and developer.mozilla.org (MDN) -->
<svg version="1.1" xmlns="http://www.w3.org/2000/svg" xmlns:xlink="http://www.w3.org/1999/xlink">
   <!-- Path half-Circle, used as a reference for the rotation object
   Delete stroke : if you don't want to see circle or set stroke-width to 0 -->
	<path id="path4" d="M100,250 C 100,50 400,50 400,250" fill="none" stroke="black" stroke-width="1"/>

   <!-- Path line, used as a reference for the rotation object -->
	<path id="path5" d="M0,0 C 100,0 100,0 100,0"/>

   <!-- Path line2, used as a reference for the rotation object -->
   <path id="path5b" d="M0,100 C 100,100 100,100 100,100"/>

   <!-- Animate loading truck -->
	<path id="path2" d="M 4.7,0 c -2.6,0 -4.7,2.1 -4.7,4.7 l 0,15.8 c 0,1.7 0.9,3.3 2.3,4.1 0,0.1 0,0.2 0,0.3 0,3.6 2.9,6.4 6.5,6.4 3.5,0 6.3,-2.7 6.4,-6.1 l 0.3,0 c 0,3.6 2.9,6.4 6.4,6.4 3.6,0 6.5,-2.9 6.5,-6.4 l 0.3,0 c 0.2,3.4 3.0,6.1 6.4,6.1 3.5,0 6.3,-2.7 6.4,-6.1 2.6,0 4.7,-2.1 4.7,-4.7 l 0,-15.8 c 0,-2.6 -2.1,-4.7 -4.7,-4.7 l -36.9,0 z m 29.9,2.3 7.3,0 c 1.5,0 2.6,1.2 2.6,2.6 l 0,7.3 c 0,1.5 -1.2,2.6 -2.6,2.6 l -7.3,0 c -1.5,0 -2.6,-1.2 -2.6,-2.6 l 0,-7.3 c 0,-1.5 1.2,-2.6 2.6,-2.6 Z">
		<animateMotion attributeType="XML"
			 dur="3s"
			 repeatCount="indefinite"
			 rotation="auto">
			<mpath xlink:href="#path5"/>
		</animateMotion>
	</path>

   <!-- Animate loading plane -->
	<path id="path2" d="M 0,0 c -8.72e-5,-8.7e-5 1,8.7 2,11 1.1,2.4 0.8,4.5 0.7,5.6 0,1.1 0.9,1.1 -1,2.5 -0.7,0.9 -1.2,1.5 -0.375,3.75 0.8,2 1.46,3.1 3.5,4.6 1.7,1.2 4.5,1 8.8,1.8 l -9.8,14 c 0,0 23.7,-8.6 29.75,-11 6,0.75 15,1.2 15,1.2 0,0 21.2,2.5 17.4,-4.7 -5.2,-10 -18,-11 -18,-11 l -10,-1.5 -5.9,-9 -6.5,7.3 -13,-2 C 8,8 4.3,4 0,0 Z">
		<animateMotion attributeType="XML"
			 dur="3s"
			 repeatCount="indefinite"
			 rotation="auto">
			<mpath xlink:href="#path4"/>
		</animateMotion>
	</path>

   <!-- Animate loading bar -->
	<rect x="10" y="60" width="100" height="5">
        <animate attributeType="XML"
                 attributeName="x"
                 from="-60" to="140"
                 dur="1s"
                 repeatCount="indefinite"/>
    </rect>

       <!-- Animate loading freight -->
   <path id="path2" d="M 4.5,26.2 0,25 0,23.2 0,21.5 0.6,19.3 c 0.6,-2 0.6,-2 1.3,-3.4 l 0.7,-1.2 1.6,0 1.6,0 0,-2.8 0,-2.8 -0.9,0 -0.9,0 0,-1.2 0,-1.2 0.9,0 0.9,0 0,-1 0,-1 -0.4,0 L 5,4.7 5,3.3 5,1.9 5.6,1.1 6.2,0.3 l 1.2,0 1.2,0 0.7,0.7 0.7,0.7 0,1.4 0,1.4 -0.5,0 -0.5,0 0,5.1 0,5.1 1.6,0 1.6,0 0,-1.2 0,-1.2 1.3,0 1.3,0 0,-1.6 0,-1.6 1.2,0 1.2,0 0,-1 0,-1 2.2,0 2.2,0 0,-0.8 0,-0.8 4,0 4,0 0,0.8 0,0.8 2.6,0 2.6,0 0,1 0,1 1.6,0 1.6,0 0,-0.8 0,-0.8 4,0 4,0 0,1 0,1 1,0 1,0 0.4,-0.4 0.4,-0.4 6,0 6,0 0,0 c -0.2,1.7 -2.1,4 -5.4,6.7 -1.5,1.2 -2.1,1.8 -3,2.7 -1.3,1.4 -2.3,3.3 -3,5.1 -0.3,1 -0.6,2.7 -0.6,3.3 l 0,0.5 -20.1,0 -20.1,0 -2.3,-0.4 z m 40.7,-1.5 c 0.2,-0.1 0.4,-0.2 0.5,-0.2 0.1,0 0.4,-0.6 0.3,-0.7 0,0 -0.2,0 -0.4,0 -0.3,0 -0.4,0.2 -0.4,0.3 0,0.2 -0.2,0.3 -0.5,0.3 -0.2,0 -0.2,0 -0.3,-0.4 0,-0.2 0,-0.6 0,-0.9 0,-0.5 0,-0.5 0.2,-0.5 0.3,0 0.6,-0.2 0.5,-0.3 0,0 -0.2,0 -0.4,0 -0.4,0 -0.5,-0.2 -0.2,-0.6 0.2,-0.3 0.2,-0.5 0,-0.7 -0.4,-0.3 -1,0 -1,0.4 0,0.2 0,0.3 0.1,0.3 0,0 0.1,0.2 0.1,0.3 0,0.2 0,0.3 -0.3,0.2 -0.2,0 -0.3,0 -0.4,0 0,0 0.2,0.3 0.5,0.3 0.2,0 0.2,0 0.2,0.9 0,0.9 0,0.9 -0.2,0.9 -0.3,0 -0.7,-0.2 -0.6,-0.3 0,-0.1 -0.6,-0.4 -0.7,-0.3 0,0 0.2,0.7 0.3,0.7 0,0 0.3,0 0.6,0.2 0.7,0.3 1.4,0.3 2,0 z">
      <animateMotion attributeType="XML"
          dur="3s"
          repeatCount="indefinite"
          rotation="auto">
         <mpath xlink:href="#path5b"/>
      </animateMotion>
   </path>
</svg>