<!-- Plane transport -->
<!-- Created with Inkscape (http://www.inkscape.org/) -->
<!-- Created by Elquattro -->
<svg version="1.1" xmlns="http://www.w3.org/2000/svg">
    <path d="m 0.04441417,0.04742574 c -8.72e-5,-8.7e-5 1.03694573,8.78842136 2.12499993,11.06250026 1.148148,2.399677 0.807474,4.50564 0.71875,5.625 -0.088725,1.119361 0.096748,1.104746 -0.9375,2.5 -0.6806363,0.918213 -1.23686183,1.500452 -0.375,3.75 0.784148,2.046707 1.459272,3.126458 3.5625,4.65625 1.6841139,1.224948 4.4881019,1.023636 8.7812509,1.78125 l -9.8125009,13.96875 c 0,0 23.6890859,-8.628331 29.7500009,-11.40625 6.060915,0.757614 14.90625,1.1875 14.90625,1.1875 0,0 21.24432,2.441914 17.4375,-4.71875 -5.295096,-9.960122 -18.15625,-11 -18.15625,-11 l -10.3125,-1.5625 -5.90625,-9.1562499 -6.46875,7.3124999 -12.96875,-1.96875 C 8.153019,8.1711001 4.2498231,3.9832821 0.04441417,0.04742574 z">
	</path>
</svg>
