<!-- Full Freight transport -->
<!-- Created with Inkscape (http://www.inkscape.org/) -->
<!-- Created by lquattro -->
<svg version="1.1" xmlns="http://www.w3.org/2000/svg">
    <path d="M 4.5,26.2 0,25 0,23.2 0,21.5 0.6,19.3 c 0.6,-2 0.6,-2 1.3,-3.4 l 0.7,-1.2 1.6,0 1.6,0 0,-2.8 0,-2.8 -0.9,0 -0.9,0 0,-1.2 0,-1.2 0.9,0 0.9,0 0,-1 0,-1 -0.4,0 L 5,4.7 5,3.3 5,1.9 5.6,1.1 6.2,0.3 l 1.2,0 1.2,0 0.7,0.7 0.7,0.7 0,1.4 0,1.4 -0.5,0 -0.5,0 0,5.1 0,5.1 1.6,0 1.6,0 0,-1.2 0,-1.2 1.3,0 1.3,0 0,-1.6 0,-1.6 1.2,0 1.2,0 0,-1 0,-1 2.2,0 2.2,0 0,-0.8 0,-0.8 4,0 4,0 0,0.8 0,0.8 2.6,0 2.6,0 0,1 0,1 1.6,0 1.6,0 0,-0.8 0,-0.8 4,0 4,0 0,1 0,1 1,0 1,0 0.4,-0.4 0.4,-0.4 6,0 6,0 0,0 c -0.2,1.7 -2.1,4 -5.4,6.7 -1.5,1.2 -2.1,1.8 -3,2.7 -1.3,1.4 -2.3,3.3 -3,5.1 -0.3,1 -0.6,2.7 -0.6,3.3 l 0,0.5 -20.1,0 -20.1,0 -2.3,-0.4 z m 40.7,-1.5 c 0.2,-0.1 0.4,-0.2 0.5,-0.2 0.1,0 0.4,-0.6 0.3,-0.7 0,0 -0.2,0 -0.4,0 -0.3,0 -0.4,0.2 -0.4,0.3 0,0.2 -0.2,0.3 -0.5,0.3 -0.2,0 -0.2,0 -0.3,-0.4 0,-0.2 0,-0.6 0,-0.9 0,-0.5 0,-0.5 0.2,-0.5 0.3,0 0.6,-0.2 0.5,-0.3 0,0 -0.2,0 -0.4,0 -0.4,0 -0.5,-0.2 -0.2,-0.6 0.2,-0.3 0.2,-0.5 0,-0.7 -0.4,-0.3 -1,0 -1,0.4 0,0.2 0,0.3 0.1,0.3 0,0 0.1,0.2 0.1,0.3 0,0.2 0,0.3 -0.3,0.2 -0.2,0 -0.3,0 -0.4,0 0,0 0.2,0.3 0.5,0.3 0.2,0 0.2,0 0.2,0.9 0,0.9 0,0.9 -0.2,0.9 -0.3,0 -0.7,-0.2 -0.6,-0.3 0,-0.1 -0.6,-0.4 -0.7,-0.3 0,0 0.2,0.7 0.3,0.7 0,0 0.3,0 0.6,0.2 0.7,0.3 1.4,0.3 2,0 z">
  </path>
</svg>
