<!-- Empty Freight transport -->
<!-- Created with Inkscape (http://www.inkscape.org/) -->
<!-- Created by lquattro -->
<svg version="1.1" xmlns="http://www.w3.org/2000/svg">
    <path d="M 43.9,25 c -0.4,-0 -0.9,-0.3 -1,-0.5 -0,0 -0,0.1 -0.1,0.2 l -0.1,-0.4 c -0,-0.2 -0.1,-0.4 -0.1,-0.4 0,-0 0.2,0 0.5,0.1 l 0.3,0.1 c -0,0.1 -0.1,0.1 -0.1,0.2 0.3,0.2 0.8,0.3 0.9,0.2 l 0,-0 0,-0.9 0,-0.9 -0.4,0 c -0.1,-0 -0.2,-0.1 -0.4,-0.2 l 0,-0.2 0.3,0 0.3,0 0,-0.2 0,-0.2 -0.1,-0 c -0.4,-0.3 -0.3,-0.8 0.2,-0.9 0.6,-0.1 1,0.5 0.5,0.9 l -0.1,0 0,0.2 0,0.2 0.4,-0 0.4,-0 0,0.2 c -0.1,0 -0.2,0.2 -0.4,0.2 l -0.4,0 0,0.9 0,0.9 0,0 c 0,0 0.2,0 0.4,0 0.1,-0 0.2,-0.1 0.3,-0.2 l -0.1,-0.1 0.3,-0 c 0.3,-0 0.7,-0.2 0.7,-0.2 0,0 -0.3,0.8 -0.3,0.9 -0,-0 -0.1,-0.1 -0.2,-0.2 -0.2,0.2 -0.6,0.4 -0.9,0.4 -0.2,0 -0.7,0 -0.9,0 z M 9.1,14.7 l 0,-10.4 1.1,0 0,-2.9 L 8.7,0 l -2.5,0 -1.2,1.5 0,2.7 0.9,0 0,2.1 -1.8,0 0,2.5 1.8,0 0,5.7 -3.2,0 -1.4,2.5 -1.2,4.4 0,3.4 9.3,2.5 40.2,0 c 0,0 -0.4,-6.4 6.1,-11.4 6.4,-5 5.9,-7.5 5.9,-7.5 l -12,0 -4.3,4.8 -8,0 -6.6,1.3 -15,0 -2.3,2.3 -4.1,0 z" >
    </path>
</svg>
