<!-- Plane transport -->
<!-- Created with Inkscape (http://www.inkscape.org/) -->
<!-- Created by lquattro -->
<svg version="1.1" xmlns="http://www.w3.org/2000/svg">
    <path d="M 0,0 c -8.72e-5,-8.7e-5 1,8.7 2,11 1.1,2.4 0.8,4.5 0.7,5.6 0,1.1 0.9,1.1 -1,2.5 -0.7,0.9 -1.2,1.5 -0.375,3.75 0.8,2 1.46,3.1 3.5,4.6 1.7,1.2 4.5,1 8.8,1.8 l -9.8,14 c 0,0 23.7,-8.6 29.75,-11 6,0.75 15,1.2 15,1.2 0,0 21.2,2.5 17.4,-4.7 -5.2,-10 -18,-11 -18,-11 l -10,-1.5 -5.9,-9 -6.5,7.3 -13,-2 C 8,8 4.3,4 0,0 Z">
	</path>
</svg>
