<!-- Truck transport -->
<!-- Created with Inkscape (http://www.inkscape.org/) -->
<!-- Created by lquattro -->
<svg version="1.1" xmlns="http://www.w3.org/2000/svg" >
    <path d="M 4.7,0 c -2.6,0 -4.7,2.1 -4.7,4.7 l 0,15.8 c 0,1.7 0.9,3.3 2.3,4.1 0,0.1 0,0.2 0,0.3 0,3.6 2.9,6.4 6.5,6.4 3.5,0 6.3,-2.7 6.4,-6.1 l 0.3,0 c 0,3.6 2.9,6.4 6.4,6.4 3.6,0 6.5,-2.9 6.5,-6.4 l 0.3,0 c 0.2,3.4 3.0,6.1 6.4,6.1 3.5,0 6.3,-2.7 6.4,-6.1 2.6,0 4.7,-2.1 4.7,-4.7 l 0,-15.8 c 0,-2.6 -2.1,-4.7 -4.7,-4.7 l -36.9,0 z m 29.9,2.3 7.3,0 c 1.5,0 2.6,1.2 2.6,2.6 l 0,7.3 c 0,1.5 -1.2,2.6 -2.6,2.6 l -7.3,0 c -1.5,0 -2.6,-1.2 -2.6,-2.6 l 0,-7.3 c 0,-1.5 1.2,-2.6 2.6,-2.6 Z">
    </path>
</svg>
